<?xml version="1.0" standalone="no"?>
<svg xmlns:xlink="http://www.w3.org/1999/xlink" id="wave" style="transform:rotate(180deg); transition: 0.3s" viewBox="0 0 1440 100" version="1.1" xmlns="http://www.w3.org/2000/svg"><defs><linearGradient id="sw-gradient-0" x1="0" x2="0" y1="1" y2="0"><stop stop-color="rgba(255, 255, 255, 1)" offset="0%"/><stop stop-color="rgba(255, 255, 255, 1)" offset="100%"/></linearGradient></defs><path style="transform:translate(0, 0px); opacity:1" fill="url(#sw-gradient-0)" d="M0,30L40,31.7C80,33,160,37,240,41.7C320,47,400,53,480,46.7C560,40,640,20,720,18.3C800,17,880,33,960,33.3C1040,33,1120,17,1200,15C1280,13,1360,27,1440,41.7C1520,57,1600,73,1680,76.7C1760,80,1840,70,1920,58.3C2000,47,2080,33,2160,25C2240,17,2320,13,2400,16.7C2480,20,2560,30,2640,35C2720,40,2800,40,2880,45C2960,50,3040,60,3120,58.3C3200,57,3280,43,3360,33.3C3440,23,3520,17,3600,13.3C3680,10,3760,10,3840,20C3920,30,4000,50,4080,63.3C4160,77,4240,83,4320,81.7C4400,80,4480,70,4560,68.3C4640,67,4720,73,4800,66.7C4880,60,4960,40,5040,35C5120,30,5200,40,5280,43.3C5360,47,5440,43,5520,45C5600,47,5680,53,5720,56.7L5760,60L5760,100L5720,100C5680,100,5600,100,5520,100C5440,100,5360,100,5280,100C5200,100,5120,100,5040,100C4960,100,4880,100,4800,100C4720,100,4640,100,4560,100C4480,100,4400,100,4320,100C4240,100,4160,100,4080,100C4000,100,3920,100,3840,100C3760,100,3680,100,3600,100C3520,100,3440,100,3360,100C3280,100,3200,100,3120,100C3040,100,2960,100,2880,100C2800,100,2720,100,2640,100C2560,100,2480,100,2400,100C2320,100,2240,100,2160,100C2080,100,2000,100,1920,100C1840,100,1760,100,1680,100C1600,100,1520,100,1440,100C1360,100,1280,100,1200,100C1120,100,1040,100,960,100C880,100,800,100,720,100C640,100,560,100,480,100C400,100,320,100,240,100C160,100,80,100,40,100L0,100Z"/></svg>