<?xml version="1.0" standalone="no"?>
<svg xmlns:xlink="http://www.w3.org/1999/xlink" id="wave" style="transform:rotate(180deg); transition: 0.3s" viewBox="0 0 1440 300" version="1.1" xmlns="http://www.w3.org/2000/svg"><defs><linearGradient id="sw-gradient-0" x1="0" x2="0" y1="1" y2="0"><stop stop-color="rgba(255, 255, 255, 1)" offset="0%"/><stop stop-color="rgba(255, 255, 255, 1)" offset="100%"/></linearGradient></defs><path style="transform:translate(0, 0px); opacity:1" fill="url(#sw-gradient-0)" d="M0,90L48,95C96,100,192,110,288,125C384,140,480,160,576,140C672,120,768,60,864,55C960,50,1056,100,1152,100C1248,100,1344,50,1440,45C1536,40,1632,80,1728,125C1824,170,1920,220,2016,230C2112,240,2208,210,2304,175C2400,140,2496,100,2592,75C2688,50,2784,40,2880,50C2976,60,3072,90,3168,105C3264,120,3360,120,3456,135C3552,150,3648,180,3744,175C3840,170,3936,130,4032,100C4128,70,4224,50,4320,40C4416,30,4512,30,4608,60C4704,90,4800,150,4896,190C4992,230,5088,250,5184,245C5280,240,5376,210,5472,205C5568,200,5664,220,5760,200C5856,180,5952,120,6048,105C6144,90,6240,120,6336,130C6432,140,6528,130,6624,135C6720,140,6816,160,6864,170L6912,180L6912,300L6864,300C6816,300,6720,300,6624,300C6528,300,6432,300,6336,300C6240,300,6144,300,6048,300C5952,300,5856,300,5760,300C5664,300,5568,300,5472,300C5376,300,5280,300,5184,300C5088,300,4992,300,4896,300C4800,300,4704,300,4608,300C4512,300,4416,300,4320,300C4224,300,4128,300,4032,300C3936,300,3840,300,3744,300C3648,300,3552,300,3456,300C3360,300,3264,300,3168,300C3072,300,2976,300,2880,300C2784,300,2688,300,2592,300C2496,300,2400,300,2304,300C2208,300,2112,300,2016,300C1920,300,1824,300,1728,300C1632,300,1536,300,1440,300C1344,300,1248,300,1152,300C1056,300,960,300,864,300C768,300,672,300,576,300C480,300,384,300,288,300C192,300,96,300,48,300L0,300Z"/></svg>