<?xml version="1.0" standalone="no"?>
<svg xmlns:xlink="http://www.w3.org/1999/xlink" id="wave" style="transform:rotate(180deg); transition: 0.3s" viewBox="0 0 1440 260" version="1.1" xmlns="http://www.w3.org/2000/svg"><defs><linearGradient id="sw-gradient-0" x1="0" x2="0" y1="1" y2="0"><stop stop-color="rgba(255, 255, 255, 1)" offset="0%"/><stop stop-color="rgba(255, 255, 255, 1)" offset="100%"/></linearGradient></defs><path style="transform:translate(0, 0px); opacity:1" fill="url(#sw-gradient-0)" d="M0,52L34.3,43.3C68.6,35,137,17,206,21.7C274.3,26,343,52,411,65C480,78,549,78,617,69.3C685.7,61,754,43,823,56.3C891.4,69,960,113,1029,130C1097.1,147,1166,139,1234,117C1302.9,95,1371,61,1440,69.3C1508.6,78,1577,130,1646,138.7C1714.3,147,1783,113,1851,99.7C1920,87,1989,95,2057,108.3C2125.7,121,2194,139,2263,138.7C2331.4,139,2400,121,2469,121.3C2537.1,121,2606,139,2674,147.3C2742.9,156,2811,156,2880,151.7C2948.6,147,3017,139,3086,138.7C3154.3,139,3223,147,3291,125.7C3360,104,3429,52,3497,30.3C3565.7,9,3634,17,3703,34.7C3771.4,52,3840,78,3909,78C3977.1,78,4046,52,4114,56.3C4182.9,61,4251,95,4320,108.3C4388.6,121,4457,113,4526,104C4594.3,95,4663,87,4731,86.7C4800,87,4869,95,4903,99.7L4937.1,104L4937.1,260L4902.9,260C4868.6,260,4800,260,4731,260C4662.9,260,4594,260,4526,260C4457.1,260,4389,260,4320,260C4251.4,260,4183,260,4114,260C4045.7,260,3977,260,3909,260C3840,260,3771,260,3703,260C3634.3,260,3566,260,3497,260C3428.6,260,3360,260,3291,260C3222.9,260,3154,260,3086,260C3017.1,260,2949,260,2880,260C2811.4,260,2743,260,2674,260C2605.7,260,2537,260,2469,260C2400,260,2331,260,2263,260C2194.3,260,2126,260,2057,260C1988.6,260,1920,260,1851,260C1782.9,260,1714,260,1646,260C1577.1,260,1509,260,1440,260C1371.4,260,1303,260,1234,260C1165.7,260,1097,260,1029,260C960,260,891,260,823,260C754.3,260,686,260,617,260C548.6,260,480,260,411,260C342.9,260,274,260,206,260C137.1,260,69,260,34,260L0,260Z"/></svg>