<?xml version="1.0" standalone="no"?>
<svg xmlns:xlink="http://www.w3.org/1999/xlink" id="wave" style="transform:rotate(180deg); transition: 0.3s" viewBox="0 0 1440 490" version="1.1" xmlns="http://www.w3.org/2000/svg"><defs><linearGradient id="sw-gradient-0" x1="0" x2="0" y1="1" y2="0"><stop stop-color="rgba(255, 255, 255, 1)" offset="0%"/><stop stop-color="rgba(255, 255, 255, 1)" offset="100%"/></linearGradient></defs><path style="transform:translate(0, 0px); opacity:1" fill="url(#sw-gradient-0)" d="M0,147L48,155.2C96,163,192,180,288,204.2C384,229,480,261,576,228.7C672,196,768,98,864,89.8C960,82,1056,163,1152,163.3C1248,163,1344,82,1440,73.5C1536,65,1632,131,1728,204.2C1824,278,1920,359,2016,375.7C2112,392,2208,343,2304,285.8C2400,229,2496,163,2592,122.5C2688,82,2784,65,2880,81.7C2976,98,3072,147,3168,171.5C3264,196,3360,196,3456,220.5C3552,245,3648,294,3744,285.8C3840,278,3936,212,4032,163.3C4128,114,4224,82,4320,65.3C4416,49,4512,49,4608,98C4704,147,4800,245,4896,310.3C4992,376,5088,408,5184,400.2C5280,392,5376,343,5472,334.8C5568,327,5664,359,5760,326.7C5856,294,5952,196,6048,171.5C6144,147,6240,196,6336,212.3C6432,229,6528,212,6624,220.5C6720,229,6816,261,6864,277.7L6912,294L6912,490L6864,490C6816,490,6720,490,6624,490C6528,490,6432,490,6336,490C6240,490,6144,490,6048,490C5952,490,5856,490,5760,490C5664,490,5568,490,5472,490C5376,490,5280,490,5184,490C5088,490,4992,490,4896,490C4800,490,4704,490,4608,490C4512,490,4416,490,4320,490C4224,490,4128,490,4032,490C3936,490,3840,490,3744,490C3648,490,3552,490,3456,490C3360,490,3264,490,3168,490C3072,490,2976,490,2880,490C2784,490,2688,490,2592,490C2496,490,2400,490,2304,490C2208,490,2112,490,2016,490C1920,490,1824,490,1728,490C1632,490,1536,490,1440,490C1344,490,1248,490,1152,490C1056,490,960,490,864,490C768,490,672,490,576,490C480,490,384,490,288,490C192,490,96,490,48,490L0,490Z"/></svg>