<?xml version="1.0" standalone="no"?>
<svg xmlns:xlink="http://www.w3.org/1999/xlink" id="wave" style="transform:rotate(180deg); transition: 0.3s" viewBox="0 0 1440 330" version="1.1" xmlns="http://www.w3.org/2000/svg"><defs><linearGradient id="sw-gradient-0" x1="0" x2="0" y1="1" y2="0"><stop stop-color="rgba(255, 255, 255, 1)" offset="0%"/><stop stop-color="rgba(255, 255, 255, 1)" offset="100%"/></linearGradient></defs><path style="transform:translate(0, 0px); opacity:1" fill="url(#sw-gradient-0)" d="M0,66L34.3,55C68.6,44,137,22,206,27.5C274.3,33,343,66,411,82.5C480,99,549,99,617,88C685.7,77,754,55,823,71.5C891.4,88,960,143,1029,165C1097.1,187,1166,176,1234,148.5C1302.9,121,1371,77,1440,88C1508.6,99,1577,165,1646,176C1714.3,187,1783,143,1851,126.5C1920,110,1989,121,2057,137.5C2125.7,154,2194,176,2263,176C2331.4,176,2400,154,2469,154C2537.1,154,2606,176,2674,187C2742.9,198,2811,198,2880,192.5C2948.6,187,3017,176,3086,176C3154.3,176,3223,187,3291,159.5C3360,132,3429,66,3497,38.5C3565.7,11,3634,22,3703,44C3771.4,66,3840,99,3909,99C3977.1,99,4046,66,4114,71.5C4182.9,77,4251,121,4320,137.5C4388.6,154,4457,143,4526,132C4594.3,121,4663,110,4731,110C4800,110,4869,121,4903,126.5L4937.1,132L4937.1,330L4902.9,330C4868.6,330,4800,330,4731,330C4662.9,330,4594,330,4526,330C4457.1,330,4389,330,4320,330C4251.4,330,4183,330,4114,330C4045.7,330,3977,330,3909,330C3840,330,3771,330,3703,330C3634.3,330,3566,330,3497,330C3428.6,330,3360,330,3291,330C3222.9,330,3154,330,3086,330C3017.1,330,2949,330,2880,330C2811.4,330,2743,330,2674,330C2605.7,330,2537,330,2469,330C2400,330,2331,330,2263,330C2194.3,330,2126,330,2057,330C1988.6,330,1920,330,1851,330C1782.9,330,1714,330,1646,330C1577.1,330,1509,330,1440,330C1371.4,330,1303,330,1234,330C1165.7,330,1097,330,1029,330C960,330,891,330,823,330C754.3,330,686,330,617,330C548.6,330,480,330,411,330C342.9,330,274,330,206,330C137.1,330,69,330,34,330L0,330Z"/></svg>