<?xml version="1.0" standalone="no"?>
<svg xmlns:xlink="http://www.w3.org/1999/xlink" id="wave" style="transform:rotate(180deg); transition: 0.3s" viewBox="0 0 1440 100" version="1.1" xmlns="http://www.w3.org/2000/svg"><defs><linearGradient id="sw-gradient-0" x1="0" x2="0" y1="1" y2="0"><stop stop-color="rgba(151, 109, 255, 1)" offset="0%"/><stop stop-color="rgba(151, 109, 255, 1)" offset="100%"/></linearGradient></defs><path style="transform:translate(0, 0px); opacity:1" fill="url(#sw-gradient-0)" d="M0,20L30,16.7C60,13,120,7,180,10C240,13,300,27,360,36.7C420,47,480,53,540,50C600,47,660,33,720,36.7C780,40,840,60,900,71.7C960,83,1020,87,1080,86.7C1140,87,1200,83,1260,71.7C1320,60,1380,40,1440,31.7C1500,23,1560,27,1620,38.3C1680,50,1740,70,1800,76.7C1860,83,1920,77,1980,76.7C2040,77,2100,83,2160,83.3C2220,83,2280,77,2340,71.7C2400,67,2460,63,2520,51.7C2580,40,2640,20,2700,10C2760,0,2820,0,2880,10C2940,20,3000,40,3060,51.7C3120,63,3180,67,3240,70C3300,73,3360,77,3420,68.3C3480,60,3540,40,3600,28.3C3660,17,3720,13,3780,18.3C3840,23,3900,37,3960,36.7C4020,37,4080,23,4140,30C4200,37,4260,63,4290,76.7L4320,90L4320,100L4290,100C4260,100,4200,100,4140,100C4080,100,4020,100,3960,100C3900,100,3840,100,3780,100C3720,100,3660,100,3600,100C3540,100,3480,100,3420,100C3360,100,3300,100,3240,100C3180,100,3120,100,3060,100C3000,100,2940,100,2880,100C2820,100,2760,100,2700,100C2640,100,2580,100,2520,100C2460,100,2400,100,2340,100C2280,100,2220,100,2160,100C2100,100,2040,100,1980,100C1920,100,1860,100,1800,100C1740,100,1680,100,1620,100C1560,100,1500,100,1440,100C1380,100,1320,100,1260,100C1200,100,1140,100,1080,100C1020,100,960,100,900,100C840,100,780,100,720,100C660,100,600,100,540,100C480,100,420,100,360,100C300,100,240,100,180,100C120,100,60,100,30,100L0,100Z"/></svg>